<svg xmlns="http://www.w3.org/2000/svg" viewBox="0 0 231.17 141.17"><defs><style>.cls-1{fill:#fefdfc;}.cls-2{fill:#ffe306;}</style></defs><title>aiflogo3</title><g id="Layer_2" data-name="Layer 2"><g id="Layer_1-2" data-name="Layer 1"><path class="cls-1" d="M106.08,141.08c-34.16,0-68.33-.05-102.5.09-3,0-3.59-.6-3.58-3.59q.18-67,0-134C0,.6.6,0,3.58,0q112,.15,224,0c3,0,3.6.6,3.59,3.58q-.18,67,0,134c0,3-.6,3.6-3.59,3.59-28.83-.14-57.66-.09-86.5-.09.79-1.61,2.33-.94,3.53-1.09,16.62-2.09,32.76-5.85,47.75-13.62,1.51-.78,3.45-1.09,4.23-3-1.67-.67-3,.14-4.42.63-15.86,5.52-32.26,7.9-49,8.53-3.38.13-4.37-.85-4.12-4.15,1.94-25.79,9.22-49.3,28-68.22,6.23-6.28,11.87-13.14,14.66-21.77.43-1.33,2.67-3.89-.18-4.31-2.23-.33-5.32-2.85-7.45,1.12-5.3,9.91-14.11,15.3-24.72,17.86a114.31,114.31,0,0,1-44.64,1.53C91,52.48,79.13,47.46,72,34.44c-1.58-2.91-4.65-.66-6.79-.37-2.56.34-.86,2.6-.43,4,2.85,9,8.82,16,15.24,22.56,17.92,18.35,25.31,41,27.3,65.92.24,3-.54,4-3.6,3.08-3.67-1-7.49-1.57-11.16-2.6-16-4.5-31.27-10.66-43.1-23C37.35,91.34,36.69,75.77,47.4,62c.85-1.08,2.32-1.91,2-3.77-.52,0-1.09-.18-1.42,0-25.25,15.42-30.27,40.2-6.6,59.33.65.52,1.33,1,2,1.51,12.68,9.46,27.25,14.42,42.41,18.08C92.51,138.76,99.53,138.7,106.08,141.08ZM51.25,57.26l.49-.91-1,.36c-.44.34-1.25.59-.42,1.29C50.37,58.05,50.93,57.52,51.25,57.26Zm125.92,62.45c2.61.55,3.68.43,4.76-.22,7.19-4.34,13.72-9.41,18.17-16.7,6.1-10,6.06-20.1.38-30.22-3.65-6.49-8.91-11.55-14.82-16-6.79-5.07-6.79-5.07-12,1.25a20.64,20.64,0,0,1-2.3,2.62c-1.86,1.62-1.71,2.72.35,4.15a50.63,50.63,0,0,1,10.86,10.22c11.09,14,10.25,29.88-2.32,42.66A26.53,26.53,0,0,1,177.17,119.71ZM123.3,53.18A14.45,14.45,0,0,0,138,38.74a14.65,14.65,0,0,0-14.61-14.6,14.42,14.42,0,0,0-14.54,14.54A14.18,14.18,0,0,0,123.3,53.18Zm57-22.93a14.59,14.59,0,1,0-.14-29.17A14.37,14.37,0,0,0,165.8,15.75,14.3,14.3,0,0,0,180.28,30.25ZM66.57,30.2a14.56,14.56,0,1,0-.36-29.11A14.32,14.32,0,0,0,51.94,15.85,14.16,14.16,0,0,0,66.57,30.2Zm9.72,4.31c1.95,4.36,4.32,6.7,9.23,6.36a83.43,83.43,0,0,1,16.42.47c6,.78,3-3.8,3.79-5.84,1.25-3-1.46-2.53-3.12-2.54C94,32.87,85.33,32.93,76.29,34.51ZM161,43.36c-3.59-1.17-7.16-2.41-10.78-3.48-2.69-.8-5.71-2.38-8.11-1.76-2.17.55-.54,4.5-2,6.56-.09.12-.06.34-.14.47-1.74,2.61-.62,3.63,2.06,4.39C149.52,51.66,155,47.22,161,43.36ZM35.32,47c8.25-.19,15.92-3.55,24-4.33,1.16-.11,3.37.17,2.57-2.43-.62-2-1.39-3-3.86-2.27A103.25,103.25,0,0,0,35.32,47Z"/><path class="cls-2" d="M106.08,141.08c-6.55-2.38-13.57-2.32-20.28-4-15.16-3.66-29.73-8.62-42.41-18.08-.66-.5-1.34-1-2-1.51C17.73,98.41,22.75,73.63,48,58.21c.33-.2.9,0,1.42,0,.3,1.86-1.17,2.69-2,3.77-10.71,13.81-10,29.38,2.1,42,11.83,12.33,27.05,18.49,43.1,23,3.67,1,7.49,1.56,11.16,2.6,3.06.88,3.84-.1,3.6-3.08-2-24.93-9.38-47.57-27.3-65.92C73.64,54,67.67,47,64.82,38c-.43-1.36-2.13-3.62.43-4,2.14-.29,5.21-2.54,6.79.37,7.09,13,18.95,18,32.67,20.15a114.31,114.31,0,0,0,44.64-1.53c10.61-2.56,19.42-8,24.72-17.86,2.13-4,5.22-1.45,7.45-1.12,2.85.42.61,3,.18,4.31C178.91,47,173.27,53.88,167,60.16c-18.76,18.92-26,42.43-28,68.22-.25,3.3.74,4.28,4.12,4.15,16.73-.63,33.13-3,49-8.53,1.4-.49,2.75-1.3,4.42-.63-.78,1.91-2.72,2.22-4.23,3-15,7.77-31.13,11.53-47.75,13.62-1.2.15-2.74-.52-3.53,1.09Z"/><path class="cls-2" d="M177.17,119.71a26.53,26.53,0,0,0,3.09-2.21c12.57-12.78,13.41-28.61,2.32-42.66a50.63,50.63,0,0,0-10.86-10.22c-2.06-1.43-2.21-2.53-.35-4.15a20.64,20.64,0,0,0,2.3-2.62c5.2-6.32,5.2-6.32,12-1.25,5.91,4.42,11.17,9.48,14.82,16,5.68,10.12,5.72,20.25-.38,30.22-4.45,7.29-11,12.36-18.17,16.7C180.85,120.14,179.78,120.26,177.17,119.71Z"/><path class="cls-2" d="M123.3,53.18a14.18,14.18,0,0,1-14.48-14.5,14.42,14.42,0,0,1,14.54-14.54A14.65,14.65,0,0,1,138,38.74,14.45,14.45,0,0,1,123.3,53.18Z"/><path class="cls-2" d="M180.28,30.25a14.3,14.3,0,0,1-14.48-14.5A14.37,14.37,0,0,1,180.14,1.08a14.59,14.59,0,1,1,.14,29.17Zm-.07-18c-1.37.42-2.92,1-3.09,3s.9,3.52,3,3.68,3.35-1.3,3.4-3.32C183.57,13.76,182.31,12.69,180.21,12.28Z"/><path class="cls-2" d="M66.57,30.2A14.16,14.16,0,0,1,51.94,15.85,14.32,14.32,0,0,1,66.21,1.09a14.56,14.56,0,1,1,.36,29.11Zm-.16-11.15c2.15-.29,3.38-1.57,3.24-3.66a3.08,3.08,0,0,0-3.32-3.05A3.12,3.12,0,0,0,63.11,16C63.27,17.88,64.51,18.87,66.41,19.05Z"/><path class="cls-2" d="M76.29,34.51c9-1.58,17.68-1.64,26.32-1.55,1.66,0,4.37-.51,3.12,2.54-.84,2,2.21,6.62-3.79,5.84a83.43,83.43,0,0,0-16.42-.47C80.61,41.21,78.24,38.87,76.29,34.51Z"/><path class="cls-2" d="M161,43.36c-6.05,3.86-11.51,8.3-19,6.18-2.68-.76-3.8-1.78-2.06-4.39.08-.13.05-.35.14-.47,1.45-2.06-.18-6,2-6.56,2.4-.62,5.42,1,8.11,1.76C153.87,41,157.44,42.19,161,43.36Z"/><path class="cls-2" d="M35.32,47a103.25,103.25,0,0,1,22.76-9c2.47-.69,3.24.27,3.86,2.27.8,2.6-1.41,2.32-2.57,2.43C51.24,43.42,43.57,46.78,35.32,47Z"/><path class="cls-2" d="M50.73,56.71l1-.36-.49.91Z"/><path class="cls-2" d="M51.25,57.26c-.32.26-.88.79-.94.74-.83-.7,0-1,.42-1.29Z"/><path class="cls-1" d="M180.21,12.28c2.1.41,3.36,1.48,3.32,3.34-.05,2-1.2,3.49-3.4,3.32s-3.19-1.55-3-3.68S178.84,12.7,180.21,12.28Z"/><path class="cls-1" d="M66.41,19.05c-1.9-.18-3.14-1.17-3.3-3.09a3.12,3.12,0,0,1,3.22-3.62,3.08,3.08,0,0,1,3.32,3.05C69.79,17.48,68.56,18.76,66.41,19.05Z"/></g></g></svg>